<svg width="24" height="24" viewBox="0 0 24 24" fill="none" xmlns="http://www.w3.org/2000/svg">
<path d="M0.723983 11.9906L7.23121 10.5L3.81208 13.7156C3.4323 14.1938 3.69961 15 4.23197 15H12.5811C12.225 13.7578 12.0281 12.4453 12.0281 11.0916V9.10312L7.54239 5.00625C6.65011 4.26 5.46916 4.34766 4.65562 5.2125L0.250478 10.6688C-0.21298 11.1563 0.12436 12.0938 0.723983 11.9906ZM21.5976 13.5891L17.8223 11.2336C17.2131 10.8527 16.8288 10.0734 16.8288 9.21797V7.5H19.2278L20.282 8.56031C20.5066 8.84062 20.8103 9 21.129 9H22.2574C22.6736 9 23.1242 8.67773 23.3259 8.16797L23.8646 6.82641C24.0661 6.31688 24.024 5.71312 23.7522 5.25609L20.9595 0.598125C20.7316 0.222656 20.4091 0 20.0342 0H11.1302C10.864 0 10.7328 0.404297 10.9203 0.638437L13.196 3L10.9953 4.16016C10.775 4.30078 10.775 4.69313 10.9953 4.83375L13.196 6L13.1959 11.0906C13.1959 14.4656 14.5452 17.625 16.7946 19.5C9.46148 19.8164 3.88289 21.4219 0.519994 22.3538C0.215421 22.4358 0 22.7756 0 23.1684C0.0347687 23.625 0.334644 24 0.699989 24H19.4115C21.7824 24 23.8954 21.7734 23.9891 18.8063C24.1132 16.5938 23.1684 14.5734 21.5976 13.5891ZM18.3697 3.10547L20.0845 3.63891C19.9814 4.15453 19.6158 4.52391 19.1802 4.49437C18.6921 4.46484 18.2084 3.90844 18.3697 3.10547Z" fill="black"/>
</svg>
