<svg width="26" height="26" viewBox="0 0 26 26" fill="none" xmlns="http://www.w3.org/2000/svg">
<path d="M16.6016 9.22824H16.6301" stroke="#231F20" stroke-miterlimit="10" stroke-linecap="round" stroke-linejoin="round"/>
<path d="M12.6011 24.9984C12.6376 24.9838 17.2893 23.1024 18.3528 19.9339C19.4195 16.7508 18.5081 16.8864 18.1959 16.6991C18.1959 16.6991 19.8807 16.67 20.7746 17.0011C21.1819 17.1513 21.64 17.0366 21.9284 16.7055C22.705 15.8189 23.8747 14.2944 23.5197 13.5144C23.5197 13.5144 24.9477 11.6717 24.9984 11.6119C25.0507 11.5522 20.1105 8.80836 20.1105 8.80836C20.651 7.60198 19.5494 5.62849 18.8885 4.48509C18.0628 3.05424 15.2923 1.27131 13.6488 1L14.5157 2.56813C14.5157 2.56813 8.17601 -0.724783 3.9078 3.51935L5.88579 3.99576C5.88579 3.99576 -1.32404 10.6785 1.77291 18.2365L3.25323 16.0515C3.25323 16.0515 2.87285 19.816 6.67667 22.3175L7.71163 20.013C7.71163 20.013 9.40433 21.116 12.6011 24.9984Z" stroke="#231F20" stroke-miterlimit="10" stroke-linecap="round" stroke-linejoin="round"/>
<path d="M25 11.6119H21.6383L23.5196 13.5144C23.5196 13.5144 22.2723 16.7395 16.313 14.8144" stroke="#231F20" stroke-miterlimit="10" stroke-linecap="round" stroke-linejoin="round"/>
<path d="M11.2333 8.7389C11.2333 8.7389 9.89567 8.49504 9.17136 7.83775C8.61505 7.33388 8.4201 6.58777 9.46615 5.52189C11.8752 3.06714 12.7628 5.3281 13.0005 5.52189" stroke="#231F20" stroke-miterlimit="10" stroke-linecap="round" stroke-linejoin="round"/>
<path d="M7.71157 20.013C7.71157 20.013 2.64456 16.9494 5.78906 8.71954" stroke="#231F20" stroke-miterlimit="10" stroke-linecap="round" stroke-linejoin="round"/>
<path d="M12.6011 25C14.0117 21.615 15.1782 20.0146 10.0367 15.7414C7.4121 13.5596 9.17136 7.83939 9.17136 7.83939" stroke="#231F20" stroke-miterlimit="10" stroke-linecap="round" stroke-linejoin="round"/>
<path d="M12.5298 10.2215C12.5298 10.2215 13.9229 11.4408 14.0402 14.3671C14.1575 17.2918 18.1959 16.6991 18.1959 16.6991C17.2275 19.4138 14.0402 20.5653 14.0402 20.5653" stroke="#231F20" stroke-miterlimit="10" stroke-linecap="round" stroke-linejoin="round"/>
<path d="M14.6648 8.17366C14.6648 8.17366 16.6016 6.56193 17.9614 8.17366" stroke="#231F20" stroke-miterlimit="10" stroke-linecap="round" stroke-linejoin="round"/>
</svg>
