<svg width="24" height="18" viewBox="0 0 24 18" fill="none" xmlns="http://www.w3.org/2000/svg">
<path d="M23.9988 9.29957C23.9547 7.71006 22.6282 6.58886 21.2386 6.85062C21.1468 6.86793 21.0617 6.88714 20.983 6.90826C20.6086 6.10365 20.1984 5.3053 19.6531 4.62714C18.9929 3.80629 18.1605 2.94884 17.2879 2.40715C16.5168 1.92846 15.6651 1.61697 14.7973 1.40691C14.0037 1.2147 13.1658 1.30975 12.3904 1.24552C11.9502 1.20906 11.484 1.26963 11.0944 1.04554C10.767 0.8573 10.7164 0.732975 11.0144 0C10.4694 0.406379 10.2287 0.711924 10.1089 1.17459C10.068 1.33262 9.85538 0.676991 10.0642 0.219664C9.62371 0.455492 9.4286 1.08306 9.35632 1.09069C9.19764 1.10762 9.11745 0.518804 9.09359 0.135609C8.75999 0.506291 8.68743 1.28427 8.68743 1.28427C8.60512 1.31829 8.30667 0.489364 8.47241 0.0838974C7.98634 0.424525 8.14601 1.31996 7.9886 1.40691C7.80239 1.50973 7.87551 0.567769 6.71914 0.161241C7.17245 0.79247 7.25631 1.0492 6.95547 1.48486C6.88968 1.5802 6.82502 1.67143 6.76418 1.75563C6.22671 2.49868 5.47438 3.10535 4.91264 3.82719C4.36515 4.53087 3.83151 5.26172 3.43141 6.07295C3.29576 6.34802 3.17071 6.63072 3.05794 6.91917C2.9659 6.89372 2.86778 6.87067 2.76138 6.85062C1.37178 6.58886 0.0452783 7.71006 0.00122945 9.29957C-0.0411047 10.827 1.01462 12.0038 2.42929 11.9034C2.5162 12.7014 2.7183 13.6273 3.0491 14.3076C3.42435 15.0793 3.92496 15.6465 4.55419 16.192C4.96558 16.5486 5.44544 16.8191 5.93984 17.018C6.94686 17.4233 8.05368 17.5496 9.11731 17.715C10.2479 17.8907 11.3915 18.0131 12.5337 17.9989C13.574 17.9861 14.6139 17.8526 15.6394 17.6633C16.5362 17.4978 17.3435 17.3471 18.1718 16.9405C18.8639 16.6008 19.4783 16.1319 20.0114 15.5466C20.6064 14.8934 21.1731 14.242 21.5165 13.4039C21.7101 12.9312 21.8316 12.4197 21.8915 11.9041C23.1417 11.8198 24.0378 10.7091 23.9988 9.29957ZM2.62033 8.36049C2.47203 9.09289 2.37253 9.91234 2.36749 10.6347C2.21 10.7136 2.05191 10.7355 1.92237 10.6725C1.46552 10.4502 1.13644 10.0399 1.23131 9.39827C1.32632 8.75651 1.64594 8.46561 2.13117 8.3303C2.32438 8.27646 2.48674 8.29432 2.62033 8.36049ZM19.7533 12.0869C19.7036 12.5976 19.6267 13.1236 19.4155 13.5836C19.1256 14.2152 18.6592 14.7355 18.1584 15.1876C17.6653 15.6329 17.069 15.9424 16.4691 16.1915C15.7347 16.4965 15.0112 16.6507 14.2313 16.7627C13.2205 16.9079 12.1917 16.937 11.1737 16.8722C10.2014 16.8103 9.21783 16.7003 8.28493 16.3976C7.58992 16.1722 6.91918 15.8988 6.33231 15.4378C5.84243 15.0531 5.37231 14.5791 5.07527 14.0088C4.70469 13.2971 4.47569 12.4702 4.45028 11.6541C4.41683 10.5841 4.69551 9.61397 5.08728 8.63066C5.37061 7.91919 5.79768 7.2631 6.30351 6.71409C6.74328 6.23694 7.26451 5.74315 7.84079 5.48672C8.40677 5.23486 9.03684 5.11603 9.64842 5.13983C10.1766 5.16028 10.6835 5.30733 11.1737 5.52089C11.5105 5.66778 11.9106 5.97863 12.1542 6.13194C12.4568 5.9812 12.7749 5.60981 13.1402 5.45544C13.7377 5.20299 14.3907 5.0602 15.0322 5.0721C15.5745 5.08232 16.097 5.20084 16.5963 5.42966C17.1239 5.67145 17.5531 6.04198 17.9605 6.47764C18.3902 6.93711 18.7038 7.51816 18.9741 8.10225C19.2888 8.78198 19.5753 9.49574 19.7026 10.2432C19.8057 10.8479 19.8127 11.4755 19.7533 12.0869ZM22.2218 10.6725C22.1371 10.7137 22.04 10.7173 21.939 10.6941C21.9259 10.1319 21.8675 9.55758 21.7553 9.04131C21.7014 8.793 21.6386 8.56403 21.5679 8.3426C21.6929 8.2929 21.8402 8.28214 22.013 8.3303C22.4982 8.46561 22.8178 8.75651 22.9128 9.39827C23.0077 10.0399 22.6786 10.4502 22.2218 10.6725ZM9.05251 10.1499C9.05251 10.7144 8.62898 11.1721 8.10648 11.1721C7.58399 11.1721 7.16046 10.7144 7.16046 10.1499C7.16046 9.58529 7.58399 9.12765 8.10648 9.12765C8.62898 9.12765 9.05251 9.58529 9.05251 10.1499ZM17.1839 10.1499C17.1839 10.7144 16.7603 11.1721 16.2378 11.1721C15.7154 11.1721 15.2918 10.7144 15.2918 10.1499C15.2918 9.58529 15.7154 9.12765 16.2378 9.12765C16.7603 9.12765 17.1839 9.58529 17.1839 10.1499ZM11.7673 12.0033C11.7147 12.1186 11.5136 12.1343 11.3183 12.0384C11.1229 11.9424 11.0071 11.7711 11.0598 11.6556C11.1124 11.5403 11.3135 11.5246 11.5088 11.6205C11.7042 11.7165 11.82 11.8878 11.7673 12.0033ZM12.6206 12.0033C12.6733 12.1186 12.8743 12.1343 13.0697 12.0384C13.2651 11.9424 13.3809 11.7711 13.3282 11.6556C13.2755 11.5403 13.0745 11.5246 12.8791 11.6205C12.6837 11.7165 12.568 11.8878 12.6206 12.0033ZM9.82785 13.5539C9.86143 13.5668 9.86228 13.6557 9.87104 13.6881C9.89442 13.7744 9.9357 13.8374 10.0023 13.8921C10.1491 14.0128 10.3464 14.0602 10.5239 14.0982C10.9326 14.1858 11.3557 14.2002 11.7712 14.1986C12.1397 14.1972 12.5088 14.1767 12.8755 14.1378C13.2962 14.0933 13.7305 14.0373 14.1313 13.8863C14.2504 13.8414 14.4707 13.7676 14.4875 13.6056C14.4958 13.5257 14.3782 13.289 14.5476 13.3996C14.7356 13.5223 14.7113 13.7781 14.5948 13.9431C14.4743 14.1137 14.2831 14.2213 14.105 14.3059C13.3969 14.6422 12.5611 14.7203 11.7943 14.7032C11.3131 14.6926 10.8144 14.6408 10.3604 14.4579C10.1544 14.3749 9.92965 14.2556 9.80277 14.0532C9.74219 13.9566 9.63725 13.5755 9.82785 13.5539Z" fill="black"/>
</svg>
