<svg width="24" height="24" viewBox="0 0 24 24" fill="none" xmlns="http://www.w3.org/2000/svg">
<path d="M16.05 5.25C17.1546 5.25 18.05 4.35457 18.05 3.25C18.05 2.14543 17.1546 1.25 16.05 1.25C14.9454 1.25 14.05 2.14543 14.05 3.25C14.05 4.35457 14.9454 5.25 16.05 5.25Z" fill="black"/>
<path d="M20.9 6C20.4 5.75 19.8 5.925 19.55 6.425L18.675 8.075L14.825 5.65C14.675 5.55 14.5 5.5 14.3 5.5H10.05C9.67499 5.5 9.34999 5.7 9.17499 6.025L7.54999 9.025C7.27499 9.5 7.47499 10.125 7.94999 10.375C8.09999 10.45 8.27499 10.5 8.42499 10.5C8.77499 10.5 9.12499 10.3 9.29999 9.975L10.65 7.5H12.125L7.69999 15.75H3.54999C2.99999 15.75 2.54999 16.2 2.54999 16.75C2.54999 17.3 2.99999 17.75 3.54999 17.75H8.29999C8.67499 17.75 8.99999 17.55 9.17499 17.225L10.925 14L13.8 16.675L13.575 21.7C13.525 22.25 13.95 22.725 14.5 22.75C14.525 22.75 14.525 22.75 14.55 22.75C15.075 22.75 15.525 22.325 15.55 21.8L15.8 16.3C15.825 16 15.7 15.725 15.475 15.525L13.05 13.275L15.6 8.525L18.5 10.35C18.725 10.5 19.025 10.55 19.3 10.475C19.575 10.4 19.8 10.225 19.925 9.975L21.3 7.35C21.575 6.875 21.4 6.275 20.9 6Z" fill="black"/>
</svg>
