<svg width="24" height="24" viewBox="0 0 24 24" fill="none" xmlns="http://www.w3.org/2000/svg">
<g clip-path="url(#clip0_454_446)">
<path d="M9.85064 22.9154C9.84193 22.9154 9.83321 22.915 9.82431 22.9143C5.51711 22.5122 3.83887 20.3999 3.29657 19.454C2.77708 20.1986 2.73889 20.2032 2.53458 20.1163C2.41314 20.0647 2.34418 19.9307 2.37013 19.8013L2.60874 19.823L2.60466 19.8185L2.37569 19.7766C2.37996 19.7367 2.36791 19.5087 2.02751 18.2854C1.71456 17.1612 1.6671 15.8858 1.66487 15.2645C1.10255 15.8059 0.324245 15.8413 0.288278 15.8428C0.171476 15.845 0.0635732 15.7773 0.0198188 15.6685C-0.0239355 15.5597 0.00535767 15.4349 0.0932372 15.357C0.378938 15.103 0.552843 13.6337 0.550062 12.4179C0.657223 9.31746 1.88364 6.45767 4.00406 4.35486C6.13041 2.24594 8.96962 1.08459 11.9985 1.08459C12.1522 1.08459 12.2766 1.209 12.2766 1.36269V8.68599C12.2766 8.83968 12.1522 8.96409 11.9985 8.96409C11.8448 8.96409 11.7204 8.83968 11.7204 8.68599V1.64413C8.94385 1.71273 6.35196 2.80937 4.39581 4.74958C2.37644 6.75227 1.20805 9.47876 1.10608 12.4268C1.107 12.7772 1.09161 14.2537 0.799796 15.1614C1.00077 15.0817 1.22121 14.9523 1.38955 14.7421C1.44462 14.6777 1.62279 14.4936 1.85917 14.5214C1.9413 14.5309 2.09389 14.5756 2.19437 14.7684C2.21662 14.8112 2.22737 14.8592 2.22552 14.9074C2.22478 14.9252 2.16304 16.6986 2.56313 18.1364C2.68754 18.5836 2.77189 18.9093 2.82825 19.1501C2.91929 19.0213 3.01699 18.8817 3.10951 18.748C3.16883 18.6623 3.27136 18.6177 3.37444 18.6305C3.47771 18.644 3.56485 18.7143 3.60007 18.8123C3.60248 18.8192 3.89115 19.5873 4.80072 20.4029C5.64336 21.1584 7.20814 22.1113 9.87623 22.3605C10.0292 22.3748 10.1415 22.5103 10.1273 22.6633C10.1137 22.8073 9.99247 22.9154 9.85064 22.9154Z" fill="black"/>
<path d="M2.66427 6.72759C2.64925 6.72759 2.63424 6.72648 2.61903 6.72389C2.27753 6.66808 1.95178 6.54998 1.65088 6.37292C0.348628 5.60648 -0.0440484 3.939 0.757435 2.57686C1.55002 1.23105 3.19062 0.777187 4.49324 1.54344C5.15345 1.93223 5.61584 2.55591 5.7953 3.30011C5.83127 3.44935 5.7395 3.59971 5.59025 3.63568C5.441 3.67258 5.29064 3.57988 5.25468 3.43063C5.11081 2.83438 4.74001 2.33436 4.21106 2.02289C3.1604 1.40458 1.8817 1.76407 1.23688 2.85904C0.593727 3.95234 0.899451 5.28537 1.93305 5.89385C2.17445 6.03587 2.4353 6.13042 2.70877 6.1751C2.86024 6.19976 2.96314 6.3427 2.93848 6.49436C2.91623 6.63081 2.79813 6.72759 2.66427 6.72759Z" fill="black"/>
<path d="M3.32038 5.48933C2.99166 5.48933 2.68038 5.36567 2.44047 5.13874C2.19166 4.90329 2.04927 4.58514 2.03982 4.24271C2.01998 3.53615 2.57896 2.94509 3.28571 2.92526C3.99467 2.90801 4.5835 3.46458 4.60353 4.17133C4.60779 4.32484 4.48691 4.45276 4.33321 4.45721C4.18712 4.46055 4.05159 4.3406 4.04733 4.1869C4.03602 3.78681 3.70638 3.47348 3.30109 3.48127C2.901 3.49258 2.58452 3.82723 2.59565 4.22732C2.60102 4.42125 2.68149 4.60146 2.82258 4.73457C2.9633 4.86787 3.1474 4.93629 3.34151 4.93276C3.49317 4.92628 3.62295 5.04938 3.6274 5.20308C3.63166 5.35659 3.51078 5.48451 3.35708 5.48896C3.34503 5.48915 3.3328 5.48933 3.32038 5.48933Z" fill="black"/>
<path d="M7.645 12.1776C6.96347 12.1776 6.40894 11.6231 6.40894 10.9416C6.40894 10.5906 6.55911 10.2548 6.82071 10.0205C7.04764 9.8173 7.34038 9.70551 7.645 9.70551C8.32653 9.70551 8.88106 10.26 8.88106 10.9416C8.88106 11.6231 8.32653 12.1776 7.645 12.1776ZM7.645 10.2617C7.47739 10.2617 7.31647 10.3233 7.19169 10.4349C7.04764 10.5637 6.96513 10.7484 6.96513 10.9416C6.96513 11.3164 7.27012 11.6214 7.645 11.6214C8.01987 11.6214 8.32486 11.3164 8.32486 10.9416C8.32486 10.5667 8.01987 10.2617 7.645 10.2617Z" fill="black"/>
<path d="M8.80377 12.6411C8.72608 12.6411 8.64896 12.6089 8.59389 12.5456L8.03325 11.9014C7.93239 11.7855 7.94444 11.6099 8.06031 11.5091C8.17619 11.408 8.35176 11.4203 8.45262 11.5361L9.01327 12.1804C9.11413 12.2963 9.10208 12.4718 8.9862 12.5727C8.93355 12.6187 8.86847 12.6411 8.80377 12.6411Z" fill="black"/>
<path d="M6.96479 10.5279C6.88711 10.5279 6.80998 10.4957 6.75492 10.4323L6.10658 9.68695C6.0059 9.57107 6.01796 9.3955 6.13383 9.29464C6.24952 9.19378 6.42528 9.20583 6.52614 9.3219L7.17448 10.0672C7.27515 10.1831 7.2631 10.3587 7.14723 10.4595C7.09457 10.5055 7.0295 10.5279 6.96479 10.5279Z" fill="black"/>
<path d="M6.99626 18.4041C6.97401 18.4041 6.9512 18.4013 6.92858 18.3958C6.75412 18.3522 6.51959 18.3088 6.51737 18.3084C6.5055 18.3062 6.49382 18.3034 6.48233 18.2997C3.09748 17.2077 2.27839 13.9868 2.2452 13.8501C1.2357 9.69179 4.05656 7.90992 4.08511 7.89249C4.21637 7.81239 4.38731 7.85355 4.4674 7.98445C4.5475 8.11534 4.50652 8.28609 4.376 8.36655C4.27181 8.43126 1.87514 9.96878 2.78546 13.7189C2.79287 13.7489 3.56821 16.7652 6.63621 17.7648C6.69776 17.7763 6.89948 17.8151 7.06337 17.8562C7.21243 17.8935 7.30291 18.0444 7.26564 18.1935C7.23412 18.3197 7.12084 18.4041 6.99626 18.4041Z" fill="black"/>
<path d="M6.08514 16.6712C6.04528 16.6712 6.00467 16.6626 5.9663 16.6443C3.09557 15.2853 3.20866 12.0239 3.21014 11.9911C3.21719 11.8378 3.34511 11.7186 3.50048 11.7258C3.65399 11.7329 3.77265 11.8626 3.76579 12.016C3.76078 12.1378 3.67383 14.9438 6.20416 16.1415C6.34303 16.2071 6.40236 16.373 6.33654 16.5119C6.28926 16.6122 6.18933 16.6712 6.08514 16.6712Z" fill="black"/>
<path d="M6.346 15.4505C6.31337 15.4505 6.28 15.4447 6.24755 15.4323C4.31754 14.7013 4.26025 12.6217 4.25859 12.5334C4.25599 12.3799 4.37835 12.2533 4.53205 12.2507C4.68297 12.2484 4.81182 12.3703 4.81478 12.5236C4.81645 12.6001 4.87374 14.3171 6.44463 14.9121C6.58832 14.9664 6.66062 15.1271 6.6063 15.2706C6.56403 15.3821 6.45835 15.4505 6.346 15.4505Z" fill="black"/>
<path d="M8.08157 4.84933C8.01075 4.84933 7.93974 4.82244 7.8856 4.76849C7.77659 4.6604 7.77603 4.48409 7.8843 4.37526C8.90493 3.34796 10.3774 2.75876 11.9242 2.75876C13.4711 2.75876 14.944 3.34796 15.965 4.37526C16.0732 4.48427 16.0727 4.6604 15.9638 4.76868C15.8548 4.87677 15.6789 4.87639 15.5704 4.76757C14.6531 3.84446 13.3241 3.31514 11.9242 3.31514C10.5246 3.31514 9.19601 3.84446 8.27883 4.76738C8.22451 4.82207 8.15295 4.84933 8.08157 4.84933Z" fill="black"/>
<path d="M14.5077 5.98618C14.4364 5.98618 14.3648 5.95893 14.3105 5.90405C13.7194 5.30929 12.8499 4.96834 11.9246 4.96834C10.9992 4.96834 10.1297 5.30929 9.53884 5.90387C9.43076 6.01307 9.25463 6.01344 9.14561 5.90516C9.0366 5.79689 9.03604 5.62076 9.14431 5.51193C9.83882 4.81297 10.852 4.41214 11.9242 4.41214C12.9967 4.41214 14.0101 4.81316 14.705 5.51212C14.8133 5.62095 14.8127 5.79708 14.7037 5.90535C14.6496 5.9593 14.5786 5.98618 14.5077 5.98618Z" fill="black"/>
<path d="M10.6697 7.05837C10.5925 7.05837 10.516 7.02648 10.4611 6.96418C10.3595 6.84887 10.3706 6.67329 10.4858 6.57169C10.8506 6.25002 11.3749 6.06555 11.9246 6.06555C12.4536 6.06555 12.9464 6.23 13.3124 6.52868C13.4314 6.62564 13.4492 6.80085 13.352 6.91987C13.2549 7.0389 13.0795 7.0567 12.9608 6.95955C12.6978 6.74486 12.3199 6.62175 11.9246 6.62175C11.5086 6.62175 11.1183 6.75561 10.8538 6.98884C10.8008 7.03556 10.7351 7.05837 10.6697 7.05837Z" fill="black"/>
<path d="M11.9478 18.5348H11.7876C11.6339 18.5348 11.5095 18.4104 11.5095 18.2567C11.5095 18.103 11.6339 17.9786 11.7876 17.9786H11.9476C12.1182 17.9786 12.209 17.8082 12.2098 17.8064C12.7002 16.8671 13.2918 16.8084 13.6097 16.7768C13.6544 16.7724 13.7156 16.7663 13.7341 16.7598C13.7657 16.7488 13.7825 16.6639 13.7823 16.6233C13.7823 16.5469 13.6854 16.4961 13.6844 16.4956C13.2441 16.2562 12.1723 16.2251 11.7965 16.2316C11.7947 16.2316 11.7928 16.2316 11.791 16.2316C11.64 16.2316 11.516 16.1107 11.513 15.959C11.5101 15.8055 11.6321 15.6785 11.7856 15.6756C11.9382 15.6722 13.2933 15.6557 13.9299 15.9965C14.0862 16.072 14.3385 16.282 14.3385 16.6178C14.3448 16.8032 14.2634 17.1649 13.9169 17.2854C13.8363 17.3134 13.753 17.3217 13.6648 17.3304C13.3928 17.3575 13.0543 17.3911 12.7065 18.057C12.6221 18.23 12.3629 18.5348 11.9478 18.5348Z" fill="black"/>
<path d="M9.83866 16.8959C9.69923 16.8959 9.57891 16.7911 9.56278 16.6491C9.55351 16.5677 9.3492 14.633 10.4584 12.5417C10.5304 12.406 10.6987 12.3543 10.8344 12.4262C10.9701 12.4982 11.0219 12.6665 10.9499 12.8022C9.9206 14.7432 10.1134 16.5681 10.1155 16.5862C10.1329 16.7388 10.0231 16.8766 9.87054 16.894C9.85961 16.8953 9.84904 16.8959 9.83866 16.8959Z" fill="black"/>
<path d="M9.56749 20.5213C9.50334 20.5213 9.43919 20.5193 9.37449 20.5152C7.88554 20.422 6.74199 19.2653 6.82505 17.9367C6.91219 16.5393 7.69069 16.1181 8.32846 16.0109C8.4803 15.9852 8.62343 16.0875 8.64883 16.239C8.67442 16.3904 8.57226 16.5339 8.42079 16.5593C8.00753 16.6289 7.44985 16.851 7.38014 17.9713C7.31618 18.994 8.22631 19.886 9.40916 19.9601C9.98742 19.9965 10.5444 19.8331 10.9736 19.5005C11.3922 19.1761 11.6395 18.7283 11.6699 18.2398C11.6796 18.0863 11.8129 17.9695 11.9647 17.9795C12.118 17.9891 12.2346 18.1212 12.225 18.2743C12.1844 18.9247 11.8609 19.5163 11.3141 19.9399C10.8265 20.3181 10.2125 20.5213 9.56749 20.5213Z" fill="black"/>
<path d="M14.1491 22.9154C14.0071 22.9154 13.886 22.8073 13.8725 22.6633C13.8582 22.5103 13.9706 22.3748 14.1235 22.3605C16.7918 22.1115 18.3564 21.1586 19.199 20.4029C20.1086 19.5873 20.3973 18.8192 20.4 18.8114C20.4358 18.7139 20.5231 18.644 20.626 18.6308C20.728 18.6175 20.8309 18.6623 20.8901 18.748C20.9826 18.8817 21.0801 19.0215 21.1713 19.1501C21.2277 18.9093 21.312 18.5834 21.4364 18.1364C21.8365 16.6988 21.7748 14.9252 21.774 14.9074C21.7722 14.8592 21.7829 14.8112 21.8052 14.7684C21.9057 14.5756 22.0583 14.5309 22.1404 14.5214C22.3784 14.4933 22.5549 14.6777 22.6039 14.7347C22.7765 14.9503 22.9986 15.0819 23.2001 15.1622C22.9079 14.2543 22.8926 12.7748 22.8933 12.4164C22.7915 9.47876 21.6231 6.75227 19.6037 4.74939C17.5825 2.74485 14.8824 1.64079 12.0012 1.64079C11.8475 1.64079 11.7231 1.51639 11.7231 1.36269C11.7231 1.209 11.8475 1.08459 12.0012 1.08459C15.0301 1.08459 17.8693 2.24594 19.9957 4.35468C22.1161 6.45748 23.3427 9.31746 23.4495 12.4075C23.4471 13.6337 23.6212 15.1032 23.9065 15.3569C23.9942 15.4347 24.0235 15.5595 23.9799 15.6683C23.9362 15.7772 23.8283 15.8443 23.7115 15.8426C23.6757 15.8413 22.9015 15.8061 22.3349 15.2632C22.3326 15.8841 22.2854 17.1604 21.9722 18.2852C21.6318 19.5085 21.6198 19.7366 21.624 19.7773C21.6246 19.7794 21.6289 19.799 21.6294 19.8011C21.6554 19.9305 21.5864 20.0643 21.465 20.1161C21.2607 20.203 21.2227 20.1984 20.703 19.4538C20.1605 20.3997 18.4823 22.512 14.1752 22.9141C14.1663 22.915 14.1576 22.9154 14.1491 22.9154Z" fill="black"/>
<path d="M21.3354 6.72761C21.2015 6.72761 21.0836 6.63083 21.0612 6.49438C21.0365 6.34272 21.1392 6.19978 21.2909 6.17512C21.5643 6.13044 21.8252 6.03589 22.0666 5.89387C23.1002 5.28539 23.4061 3.95236 22.7628 2.85888C22.1181 1.76409 20.8396 1.40479 19.7886 2.02291C19.2596 2.33438 18.8888 2.83422 18.745 3.43065C18.709 3.5799 18.5592 3.67241 18.4094 3.6357C18.2601 3.59973 18.1684 3.44937 18.2043 3.30013C18.384 2.55612 18.8464 1.93225 19.5064 1.54365C20.8088 0.777393 22.4498 1.23107 23.242 2.5767C24.0435 3.93902 23.651 5.6065 22.3486 6.37313C22.0477 6.55019 21.7219 6.66829 21.3804 6.72409C21.3654 6.7265 21.3504 6.72761 21.3354 6.72761Z" fill="black"/>
<path d="M20.6794 5.48934C20.6672 5.48934 20.6548 5.48915 20.6425 5.48878C20.489 5.48452 20.3681 5.35659 20.3722 5.20289C20.3765 5.0492 20.5085 4.92869 20.6581 4.93258C20.8494 4.9361 21.0361 4.86769 21.177 4.73439C21.318 4.60109 21.3986 4.42106 21.404 4.22713C21.4153 3.82686 21.0988 3.49221 20.6985 3.48109C20.2986 3.46941 19.9636 3.78644 19.9523 4.18672C19.948 4.34041 19.8168 4.46055 19.6664 4.45703C19.5129 4.45277 19.392 4.32484 19.3961 4.17114C19.4159 3.4644 20.0083 2.90523 20.7137 2.92507C21.4207 2.94491 21.9796 3.53596 21.9598 4.24271C21.9503 4.58496 21.808 4.9031 21.5592 5.13856C21.3194 5.36567 21.0081 5.48934 20.6794 5.48934Z" fill="black"/>
<path d="M16.355 12.1776C15.6734 12.1776 15.1189 11.6231 15.1189 10.9416C15.1189 10.26 15.6734 9.70551 16.355 9.70551C16.6596 9.70551 16.9523 9.81749 17.1792 10.0205C17.441 10.2548 17.591 10.5906 17.591 10.9416C17.591 11.6231 17.0365 12.1776 16.355 12.1776ZM16.355 10.2617C15.9801 10.2617 15.6751 10.5667 15.6751 10.9416C15.6751 11.3164 15.9801 11.6214 16.355 11.6214C16.7298 11.6214 17.0348 11.3164 17.0348 10.9416C17.0348 10.7484 16.9523 10.5637 16.8083 10.4349C16.6835 10.3231 16.5226 10.2617 16.355 10.2617Z" fill="black"/>
<path d="M15.1964 12.6411C15.1315 12.6411 15.0666 12.6187 15.0139 12.5727C14.8981 12.4719 14.886 12.2963 14.9869 12.1804L15.5475 11.5361C15.6484 11.4203 15.8241 11.4082 15.9398 11.5091C16.0557 11.6099 16.0677 11.7855 15.9669 11.9014L15.4062 12.5456C15.3512 12.6087 15.2739 12.6411 15.1964 12.6411Z" fill="black"/>
<path d="M17.0351 10.5279C16.9704 10.5279 16.9053 10.5055 16.8527 10.4597C16.7368 10.3588 16.7245 10.1833 16.8254 10.0674L17.4737 9.32208C17.5746 9.2062 17.7504 9.19397 17.8661 9.29482C17.9819 9.39568 17.9942 9.57125 17.8933 9.68713L17.245 10.4324C17.1901 10.4957 17.1128 10.5279 17.0351 10.5279Z" fill="black"/>
<path d="M17.0038 18.4041C16.8792 18.4041 16.7657 18.3197 16.7342 18.1933C16.6969 18.0442 16.7876 17.8933 16.9365 17.8561C17.1004 17.8151 17.3021 17.7763 17.3636 17.7646C20.4413 16.7616 21.2068 13.7489 21.2144 13.7185C22.1293 9.94986 19.6496 8.38212 19.6244 8.36673C19.4933 8.28646 19.4522 8.11533 19.5324 7.98444C19.6125 7.85336 19.7837 7.81202 19.9147 7.89248C19.9433 7.90991 22.7643 9.69179 21.7546 13.8499C21.7215 13.9866 20.9024 17.2075 17.5175 18.2995C17.506 18.3032 17.4943 18.3062 17.4825 18.3082C17.4801 18.3086 17.2457 18.352 17.0713 18.3956C17.0488 18.4015 17.026 18.4041 17.0038 18.4041Z" fill="black"/>
<path d="M17.9146 16.6712C17.8104 16.6712 17.7105 16.6124 17.663 16.5119C17.5974 16.373 17.6565 16.2073 17.7954 16.1415C20.3355 14.9392 20.2351 12.0453 20.2338 12.0161C20.2269 11.8628 20.3457 11.7329 20.4991 11.7258C20.6555 11.7182 20.7825 11.8378 20.7894 11.9911C20.7909 12.0239 20.9042 15.2855 18.0332 16.6443C17.9951 16.6624 17.9545 16.6712 17.9146 16.6712Z" fill="black"/>
<path d="M17.6537 15.4505C17.5413 15.4505 17.4356 15.3821 17.3936 15.2708C17.3392 15.1273 17.4115 14.9666 17.5552 14.9123C19.1363 14.3134 19.1847 12.5419 19.1849 12.5241C19.1877 12.3704 19.3173 12.2538 19.4676 12.2507C19.6213 12.2533 19.7435 12.3799 19.7411 12.5334C19.7396 12.6217 19.6821 14.7011 17.7521 15.4323C17.7197 15.4446 17.6865 15.4505 17.6537 15.4505Z" fill="black"/>
<path d="M14.4324 20.5213C13.7874 20.5213 13.1734 20.3182 12.6856 19.9401C12.1389 19.5163 11.8155 18.9249 11.7747 18.2745C11.7651 18.1212 11.8817 17.9892 12.035 17.9797C12.1874 17.9701 12.3204 18.0867 12.3298 18.24C12.3604 18.7285 12.6077 19.1763 13.0262 19.5007C13.4556 19.8333 14.0129 19.9972 14.5906 19.9603C15.7734 19.8862 16.6837 18.9942 16.6196 17.9715C16.5499 16.851 15.9922 16.6289 15.5789 16.5594C15.4275 16.534 15.3253 16.3905 15.3509 16.239C15.3763 16.0875 15.5202 15.9857 15.6713 16.0109C16.309 16.1183 17.0877 16.5395 17.1747 17.9369C17.2577 19.2655 16.1142 20.4222 14.6252 20.5154C14.5609 20.5193 14.4964 20.5213 14.4324 20.5213Z" fill="black"/>
<path d="M15.8163 4.84933C15.7447 4.84933 15.6734 4.82207 15.619 4.7672C14.702 3.84409 13.3735 3.31496 11.9737 3.31496C10.5737 3.31496 9.24461 3.84428 8.32744 4.76738C8.21917 4.8764 8.04322 4.87677 7.93402 4.76849C7.82519 4.66022 7.82464 4.48409 7.93291 4.37508C8.95391 3.34778 10.4267 2.75858 11.9737 2.75858C13.5203 2.75858 14.9929 3.34778 16.0136 4.37508C16.1218 4.48391 16.1213 4.66022 16.0123 4.76831C15.9579 4.82245 15.8871 4.84933 15.8163 4.84933Z" fill="black"/>
<path d="M9.39016 5.98618C9.31934 5.98618 9.24833 5.9593 9.19419 5.90535C9.08518 5.79708 9.08462 5.62095 9.1929 5.51212C9.88759 4.81297 10.9008 4.41214 11.9732 4.41214C13.0457 4.41214 14.0589 4.81297 14.7536 5.51193C14.8619 5.62076 14.8613 5.79689 14.7523 5.90516C14.6435 6.01344 14.4671 6.01288 14.3591 5.90387C13.7682 5.30929 12.8989 4.96834 11.9737 4.96834C11.048 4.96834 10.1785 5.30947 9.58743 5.90405C9.53311 5.95893 9.46154 5.98618 9.39016 5.98618Z" fill="black"/>
<path d="M13.228 7.05837C13.1625 7.05837 13.0969 7.03538 13.0441 6.98884C12.7795 6.75542 12.3891 6.62175 11.9732 6.62175C11.5779 6.62175 11.2003 6.74486 10.937 6.95955C10.8178 7.0567 10.6428 7.0389 10.5458 6.91987C10.4487 6.80085 10.4665 6.62564 10.5855 6.52868C10.9517 6.23 11.4444 6.06555 11.9732 6.06555C12.5227 6.06555 13.0472 6.25002 13.4121 6.57169C13.5272 6.67329 13.5383 6.84905 13.4367 6.96418C13.3817 7.02666 13.3051 7.05837 13.228 7.05837Z" fill="black"/>
<path d="M12.11 18.5348H11.95C11.5347 18.5348 11.2755 18.23 11.1878 18.0502C10.8437 17.3911 10.505 17.3575 10.233 17.3304C10.1447 17.3217 10.0615 17.3134 9.98085 17.2854C9.63433 17.1651 9.55294 16.8033 9.55943 16.6085C9.55925 16.282 9.81158 16.0719 9.96787 15.9967C10.6045 15.6561 11.9592 15.6722 12.1122 15.6757C12.2657 15.6787 12.3877 15.8057 12.3847 15.9592C12.3818 16.1127 12.2585 16.2431 12.1013 16.2318C11.7247 16.2245 10.6538 16.2564 10.2265 16.4893C10.2209 16.4924 10.2152 16.4952 10.2093 16.4978C10.2096 16.4978 10.1154 16.548 10.1154 16.6178C10.1153 16.6641 10.1319 16.749 10.1635 16.76C10.1822 16.7664 10.2434 16.7726 10.2881 16.777C10.606 16.8085 11.1976 16.8673 11.6845 17.7997C11.69 17.8104 11.7803 17.9788 11.9502 17.9788H12.1102C12.2639 17.9788 12.3883 18.1032 12.3883 18.2569C12.3883 18.4106 12.2635 18.5348 12.11 18.5348Z" fill="black"/>
<path d="M14.0823 16.8959C14.0717 16.8959 14.0612 16.8953 14.0506 16.894C13.8982 16.8768 13.7885 16.7392 13.8057 16.5868C13.8077 16.5684 13.9963 14.735 12.9714 12.8022C12.8995 12.6667 12.9512 12.4982 13.0869 12.4262C13.2224 12.3543 13.391 12.4058 13.4629 12.5417C14.5721 14.6332 14.3678 16.5677 14.3586 16.6491C14.3422 16.7911 14.2219 16.8959 14.0823 16.8959Z" fill="black"/>
<path d="M11.9013 22.4519C9.55045 22.4519 8.14697 21.5336 8.14697 19.9954C8.14697 19.8417 8.27138 19.7173 8.42507 19.7173C8.57877 19.7173 8.70317 19.8417 8.70317 19.9954C8.70317 21.2031 9.86897 21.8957 11.9013 21.8957C13.0382 21.8957 14.9647 21.6699 15.0928 20.1582C15.1058 20.0052 15.2393 19.891 15.3933 19.9045C15.5465 19.9175 15.6599 20.0521 15.647 20.2051C15.5759 21.0442 14.9947 22.4519 11.9013 22.4519Z" fill="black"/>
</g>
<defs>
<clipPath id="clip0_454_446">
<rect width="24" height="24" fill="white"/>
</clipPath>
</defs>
</svg>
