<svg width="24" height="24" viewBox="0 0 24 24" fill="none" xmlns="http://www.w3.org/2000/svg">
<g id="Group">
<g id="access-time">
<path id="Vector" d="M12 0C5.4 0 0 5.4 0 12C0 18.6 5.4 24 12 24C18.6 24 24 18.6 24 12C24 5.4 18.6 0 12 0ZM12 21.6C6.72 21.6 2.4 17.28 2.4 12C2.4 6.72 6.72 2.4 12 2.4C17.28 2.4 21.6 6.72 21.6 12C21.6 17.28 17.28 21.6 12 21.6Z" fill="black" fill-opacity="0.9"/>
<path id="Vector_2" d="M12.6 6H10.8V13.2L17.04 17.04L18 15.48L12.6 12.24V6Z" fill="black" fill-opacity="0.9"/>
</g>
</g>
</svg>
