<svg width="15" height="24" viewBox="0 0 15 24" fill="none" xmlns="http://www.w3.org/2000/svg">
<path d="M1.94082 6.67799C1.85055 6.67799 1.76465 6.6455 1.70766 6.58906C0.701671 5.59118 0.812074 4.49406 0.817256 4.44777C0.900158 3.26758 1.90376 3.20624 1.9466 3.20417C2.08072 3.19894 2.20507 3.26425 2.24792 3.36634C2.32803 3.55768 3.0052 4.63577 3.44064 5.31392C3.51477 5.42949 3.45897 5.57089 3.31509 5.63192C2.70109 5.89237 2.20328 6.55451 2.1983 6.56116C2.14828 6.62822 2.05999 6.67181 1.96195 6.6772C1.95497 6.67783 1.948 6.67799 1.94082 6.67799ZM1.79754 3.73966C1.64369 3.82288 1.446 4.0196 1.41332 4.48233C1.41192 4.49723 1.34117 5.25876 1.93584 6.0233C2.13114 5.81501 2.42787 5.53855 2.784 5.33643C2.54186 4.95694 2.03568 4.15783 1.79754 3.73966Z" fill="black"/>
<path d="M13.0101 6.67799C13.0031 6.67799 12.996 6.67783 12.989 6.67736C12.8911 6.67181 12.8027 6.62838 12.7526 6.56132C12.7477 6.55466 12.2499 5.89252 11.6359 5.63207C11.492 5.57104 11.4362 5.42964 11.5103 5.31408C11.9459 4.63609 12.6229 3.55768 12.703 3.3665C12.7459 3.26441 12.8666 3.1991 13.0043 3.20433C13.047 3.20639 14.0506 3.26758 14.1343 4.45569C14.1387 4.49406 14.2491 5.59118 13.2431 6.58906C13.1865 6.64565 13.1004 6.67799 13.0101 6.67799ZM12.1672 5.33643C12.5233 5.53871 12.82 5.81517 13.0155 6.02346C13.6155 5.2548 13.5394 4.49849 13.5384 4.49009C13.5055 4.02357 13.3087 3.82494 13.153 3.74045C12.9149 4.15894 12.4091 4.95709 12.1672 5.33643Z" fill="black"/>
<path d="M5.90318 22.9436C5.33821 22.9436 4.87866 22.5779 4.87866 22.1283C4.87866 21.6791 5.33821 21.3134 5.90318 21.3134C6.46816 21.3134 6.92791 21.6789 6.92791 22.1283C6.92771 22.5779 6.46816 22.9436 5.90318 22.9436ZM5.90318 21.7891C5.66783 21.7891 5.47652 21.9413 5.47652 22.1285C5.47652 22.3159 5.66783 22.4682 5.90318 22.4682C6.13854 22.4682 6.33005 22.3159 6.33005 22.1285C6.32985 21.9415 6.13834 21.7891 5.90318 21.7891Z" fill="black"/>
<path d="M6.62858 22.3663C6.47394 22.3663 6.34321 22.2716 6.33085 22.1474C6.32129 22.0657 6.20212 21.3684 4.90537 21.3684C4.74017 21.3684 4.60645 21.262 4.60645 21.1306C4.60645 20.9992 4.74017 20.8928 4.90537 20.8928C6.41675 20.8928 6.88865 21.6899 6.92711 22.1114C6.93907 22.2423 6.81512 22.3563 6.65051 22.3657C6.64313 22.366 6.63576 22.3663 6.62858 22.3663Z" fill="black"/>
<path d="M3.35693 13.5597C3.1985 13.5597 3.06637 13.4606 3.0586 13.3335C2.95657 11.6608 1.23336 11.5422 1.16022 11.5379C0.99541 11.5284 0.871654 11.4146 0.883611 11.2836C0.895568 11.1526 1.04065 11.0554 1.20326 11.0636C1.22658 11.0649 3.52832 11.222 3.65566 13.3103C3.66383 13.4416 3.53649 13.553 3.37168 13.5594C3.3667 13.5597 3.36171 13.5597 3.35693 13.5597Z" fill="black"/>
<path d="M1.75223 12.7745C1.69823 12.7745 1.64402 12.771 1.58962 12.7641C1.33892 12.7316 1.11731 12.6271 0.966055 12.4699C0.810812 12.3083 0.747439 12.111 0.787695 11.9142C0.8698 11.5135 1.36303 11.2427 1.88695 11.3103C2.13765 11.3426 2.35905 11.4471 2.51051 11.6045C2.66595 11.766 2.72932 11.9634 2.68907 12.1603C2.64881 12.357 2.51011 12.528 2.29847 12.6422C2.13665 12.7292 1.94733 12.7745 1.75223 12.7745ZM1.72553 11.7755C1.55295 11.7755 1.40348 11.8643 1.37758 11.9906C1.36403 12.0568 1.38635 12.1243 1.44075 12.1807C1.49894 12.2413 1.58603 12.2817 1.68567 12.2947C1.78511 12.3078 1.88376 12.2912 1.96308 12.2484C2.03721 12.2086 2.08544 12.1501 2.09899 12.0839C2.11254 12.0178 2.09002 11.9501 2.03581 11.8936C1.97762 11.8331 1.89054 11.7925 1.79109 11.7797C1.76897 11.7768 1.74705 11.7755 1.72553 11.7755Z" fill="black"/>
<path d="M7.5544 24H6.19687C4.8794 24 4.22037 23.0944 4.19287 23.0557C3.46129 22.061 3.56751 20.8402 3.653 19.8594C3.66337 19.7417 3.67333 19.6271 3.6815 19.5166C3.75045 18.5838 3.24826 17.8275 3.24328 17.8199C-1.04393 11.5425 1.14341 7.46647 1.16593 7.42589C1.19124 7.38055 1.15059 7.32872 1.14999 7.32824C1.13963 7.3173 1.13046 7.30557 1.12269 7.29337L0.882152 6.91688C-0.46541 5.01162 -0.264531 3.11081 1.4535 1.57363L1.50213 1.52972C1.67451 1.36819 1.85825 1.294 2.04697 1.31049C2.22752 1.32587 2.35247 1.42129 2.40887 1.50547C2.41365 1.5126 2.41804 1.51989 2.42182 1.5275C2.47822 1.6372 3.80466 4.21886 4.00375 4.65892C4.02626 4.70853 4.04659 4.74563 4.06393 4.77305C5.1018 4.22663 6.16817 4.02927 6.89237 3.96063C7.05639 3.94447 7.20505 4.03815 7.22458 4.16861C7.24411 4.29892 7.12713 4.41733 6.96312 4.43287C6.27878 4.4977 5.26004 4.6884 4.28633 5.22785C4.20722 5.27778 4.08127 5.31614 3.93579 5.28951C3.65998 5.23878 3.52148 4.9972 3.44117 4.81997C3.27277 4.44777 2.23071 2.41379 1.94215 1.85136L1.9001 1.88941C0.342489 3.28312 0.172699 4.94394 1.40906 6.69242L1.64701 7.06446C1.70579 7.13643 1.85665 7.36026 1.71197 7.61897C1.69065 7.65717 -0.379917 11.519 3.76899 17.5939C3.7939 17.6305 4.35688 18.4789 4.27816 19.5443C4.26979 19.6565 4.25983 19.7726 4.24926 19.8921C4.16955 20.8077 4.07031 21.9472 4.71101 22.8184C4.73333 22.8493 5.23313 23.5241 6.19667 23.5241H7.5542C7.71941 23.5241 7.85313 23.6305 7.85313 23.7619C7.85313 23.8933 7.7196 24 7.5544 24Z" fill="black"/>
<path d="M5.21757 9.97443C5.21298 9.97443 5.2084 9.97443 5.20382 9.97427C5.07847 9.96967 4.97006 9.90341 4.93239 9.80814C4.69006 9.19609 4.55435 8.43091 4.48121 7.86706C4.3168 8.1665 4.13665 8.533 3.98818 8.8697C3.94294 8.9721 3.817 9.03662 3.68029 9.0279C3.54437 9.01855 3.43357 8.93707 3.41125 8.83007C2.97123 6.72888 3.79069 5.02447 3.82576 4.95297C3.88575 4.83075 4.05893 4.77036 4.21257 4.81791C4.36622 4.86547 4.44235 5.00322 4.38276 5.1256C4.37619 5.13908 3.83872 6.26267 3.88415 7.7618C4.0936 7.37326 4.32696 7.00819 4.51549 6.88803C4.60357 6.83208 4.72314 6.82019 4.82557 6.85696C4.92801 6.8939 4.99576 6.97332 5.00094 7.06272C5.00154 7.07509 5.06113 8.06235 5.28951 8.98288L6.08724 7.46521C6.15082 7.3441 6.32639 7.28687 6.47824 7.3376C6.63049 7.38816 6.70244 7.5275 6.63866 7.64861L5.49338 9.82827C5.44674 9.9172 5.33754 9.97443 5.21757 9.97443Z" fill="black"/>
<path d="M9.7094 9.97443C9.58943 9.97443 9.48042 9.9172 9.43378 9.82843L8.2879 7.64877C8.22413 7.52766 8.29607 7.38832 8.44832 7.33775C8.60038 7.28703 8.77575 7.34425 8.83932 7.46536L9.63725 8.98304C9.86583 8.06203 9.92502 7.07524 9.92582 7.06288C9.931 6.97347 9.99876 6.89406 10.1012 6.85712C10.2032 6.82034 10.3234 6.83207 10.4113 6.88819C10.6 7.00835 10.8336 7.3739 11.043 7.76275C11.0896 6.26013 10.5508 5.13939 10.5442 5.12592C10.4842 5.0037 10.5601 4.86563 10.714 4.81791C10.8682 4.77004 11.0412 4.83059 11.1012 4.95297C11.1363 5.02447 11.9559 6.72904 11.5157 8.83007C11.4934 8.93707 11.3826 9.01855 11.2467 9.0279C11.1122 9.03662 10.984 8.9721 10.9388 8.8697C10.7903 8.53316 10.6102 8.16666 10.4458 7.86721C10.3726 8.43091 10.2369 9.19609 9.99457 9.80814C9.95691 9.90341 9.8485 9.96983 9.72315 9.97427C9.71856 9.97427 9.71398 9.97443 9.7094 9.97443Z" fill="black"/>
<path d="M9.09796 22.9438C8.53299 22.9438 8.07324 22.5782 8.07324 22.1288C8.07324 21.6794 8.53299 21.3139 9.09796 21.3139C9.66294 21.3139 10.1225 21.6794 10.1225 22.1288C10.1225 22.5782 9.66274 22.9438 9.09796 22.9438ZM9.09796 21.7896C8.86261 21.7896 8.6711 21.9418 8.6711 22.129C8.6711 22.3162 8.86261 22.4684 9.09796 22.4684C9.33332 22.4684 9.52463 22.3162 9.52463 22.129C9.52463 21.9418 9.33312 21.7896 9.09796 21.7896Z" fill="black"/>
<path d="M8.37254 22.3666C8.36537 22.3666 8.358 22.3664 8.35062 22.366C8.18601 22.3565 8.06226 22.2426 8.07402 22.1117C8.11228 21.6902 8.58418 20.893 10.0958 20.893C10.261 20.893 10.3947 20.9994 10.3947 21.1308C10.3947 21.2622 10.261 21.3686 10.0958 21.3686C8.75656 21.3686 8.67326 22.1144 8.67047 22.1461C8.65911 22.2712 8.52799 22.3666 8.37254 22.3666Z" fill="black"/>
<path d="M11.6443 13.5597C11.6395 13.5597 11.6345 13.5597 11.6296 13.5594C11.4646 13.553 11.3374 13.4414 11.3456 13.3103C11.4733 11.2218 13.7751 11.0649 13.7984 11.0636C13.9634 11.0555 14.1063 11.1527 14.118 11.2836C14.13 11.4144 14.0066 11.5281 13.8424 11.5379C13.7651 11.543 12.0441 11.6749 11.9426 13.3335C11.9349 13.4608 11.8027 13.5597 11.6443 13.5597Z" fill="black"/>
<path d="M13.2506 12.7745C12.7898 12.7745 12.3859 12.5196 12.3124 12.1603C12.2721 11.9634 12.3355 11.766 12.4909 11.6045C12.6424 11.4471 12.864 11.3426 13.1149 11.3103C13.3652 11.2778 13.6171 11.3211 13.8233 11.4322C14.035 11.5463 14.1737 11.7174 14.2139 11.9142C14.2954 12.3151 13.9357 12.6962 13.412 12.7641C13.3578 12.771 13.3038 12.7745 13.2506 12.7745ZM12.9022 12.0839C12.9313 12.2259 13.1165 12.3201 13.3159 12.2947C13.5146 12.2688 13.6527 12.1325 13.6238 11.9903C13.6105 11.9242 13.5621 11.8659 13.4881 11.8259C13.4086 11.7831 13.3102 11.767 13.2107 11.7797C13.1109 11.7925 13.0238 11.8329 12.9656 11.8936C12.9112 11.9501 12.8887 12.0178 12.9022 12.0839Z" fill="black"/>
<path d="M8.8044 24H7.44688C7.28167 24 7.14795 23.8936 7.14795 23.7622C7.14795 23.6308 7.28167 23.5244 7.44688 23.5244H8.8044C9.76794 23.5244 10.2677 22.8496 10.2885 22.8209C10.9308 21.9475 10.8315 20.808 10.7518 19.8924C10.7414 19.7729 10.7313 19.6567 10.7229 19.5446C10.6442 18.4792 11.2072 17.6308 11.2313 17.5953C15.381 11.5194 13.3106 7.65765 13.2891 7.61929C13.1444 7.36042 13.2953 7.13675 13.3541 7.06478L13.5866 6.70145C14.8288 4.94441 14.659 3.28343 13.1014 1.88972L13.0593 1.85168C12.7708 2.41411 11.7287 4.44808 11.5603 4.82045C11.4802 4.99752 11.3417 5.2391 11.0659 5.28983C10.9206 5.31662 10.7941 5.27826 10.7149 5.22816C9.66491 4.64639 8.54852 4.47678 7.97538 4.42748C7.81117 4.41337 7.69259 4.29606 7.71033 4.1656C7.72787 4.03498 7.87653 3.94082 8.03955 3.95477C8.78129 4.01849 9.87356 4.21316 10.9373 4.77369C10.9547 4.74626 10.975 4.70917 10.9975 4.65939C11.1968 4.21934 12.5233 1.63768 12.5796 1.52798C12.5836 1.52037 12.588 1.51308 12.5926 1.50594C12.6492 1.42177 12.774 1.32634 12.9545 1.31096C13.1442 1.29448 13.327 1.36867 13.4993 1.5302L13.5478 1.57395C15.2658 3.11112 15.4665 5.01194 14.1129 6.92608L13.878 7.29384C13.87 7.30605 13.861 7.31762 13.8507 7.32856C13.8511 7.32856 13.8092 7.38056 13.8347 7.42621C13.8573 7.46663 16.0446 11.5428 11.7566 17.8212C11.7524 17.8274 11.2504 18.59 11.3192 19.5167C11.3273 19.6272 11.3373 19.7418 11.3477 19.8596C11.433 20.8404 11.5392 22.0611 10.8056 23.0589C10.7809 23.0944 10.1219 24 8.8044 24Z" fill="black"/>
<path d="M6.33847 18.5742C6.17326 18.5742 6.03954 18.4678 6.03954 18.3364C6.03954 16.4663 4.23303 14.7009 4.21469 14.6833C4.10987 14.582 4.1278 14.4322 4.25515 14.3486C4.38229 14.2651 4.57062 14.2792 4.67564 14.3807C4.75575 14.4577 6.6374 16.2931 6.6374 18.3365C6.6374 18.4676 6.50348 18.5742 6.33847 18.5742Z" fill="black"/>
<path d="M8.73032 18.5742C8.56512 18.5742 8.4314 18.4678 8.4314 18.3364C8.4314 16.2929 10.3128 14.4575 10.3932 14.3805C10.4982 14.2792 10.6863 14.2649 10.8136 14.3485C10.941 14.432 10.9589 14.5818 10.8541 14.6831C10.8358 14.7007 9.02925 16.4663 9.02925 18.3362C9.02925 18.4676 8.89533 18.5742 8.73032 18.5742Z" fill="black"/>
<path d="M7.45976 12.2333C6.46633 12.2333 5.74512 11.7037 5.74512 10.9741C5.74572 10.9519 5.8065 9.43133 6.21344 6.87408C6.61798 4.3303 7.17538 0.25284 7.18076 0.211942C7.1973 0.0914663 7.32524 0 7.4779 0C7.63035 0 7.75849 0.0913078 7.77523 0.211783L8.68795 6.80909C8.70828 6.94795 9.19254 10.2558 9.19254 10.9742C9.19254 11.7039 8.46376 12.2333 7.45976 12.2333ZM7.4769 2.40333C7.281 3.78769 7.02213 5.57802 6.80671 6.934C6.40375 9.46605 6.34357 10.9664 6.34297 10.9813C6.34297 11.4357 6.80232 11.7579 7.45976 11.7579C8.0064 11.7579 8.59469 11.5127 8.59469 10.9742C8.59469 10.2834 8.09887 6.89675 8.09389 6.86267L7.4769 2.40333Z" fill="black"/>
<path d="M7.41284 10.6689C6.74504 10.6689 6.21235 10.4554 5.94531 10.2742C5.81976 10.1891 5.80461 10.0389 5.91183 9.93908C6.01845 9.83937 6.20657 9.82732 6.33212 9.91165C6.37517 9.94003 7.32376 10.5484 8.60157 9.89342C8.74047 9.82209 8.92541 9.85395 9.01469 9.96444C9.10417 10.0748 9.06411 10.222 8.92541 10.2931C8.38635 10.5695 7.86821 10.6689 7.41284 10.6689Z" fill="black"/>
<path d="M7.41284 9.18943C6.74504 9.18943 6.21235 8.97606 5.94531 8.79487C5.81976 8.70959 5.80461 8.55963 5.91183 8.4596C6.01884 8.35989 6.20657 8.34785 6.33212 8.43218C6.37497 8.4604 7.32376 9.06864 8.60157 8.41395C8.74047 8.34277 8.92541 8.37448 9.01469 8.48497C9.10417 8.5953 9.06411 8.74256 8.92541 8.81358C8.38635 9.0902 7.86821 9.18943 7.41284 9.18943Z" fill="black"/>
<path d="M7.42121 7.71155C6.96684 7.71155 6.60135 7.61041 6.37257 7.52433C6.22331 7.46822 6.15954 7.32634 6.23028 7.20761C6.30103 7.08888 6.47959 7.03831 6.62845 7.09443C6.99872 7.23392 7.591 7.34203 8.30942 7.06542C8.45828 7.00803 8.63684 7.05765 8.70879 7.17575C8.78073 7.294 8.71855 7.4362 8.57008 7.49342C8.15059 7.65511 7.76119 7.71155 7.42121 7.71155Z" fill="black"/>
<path d="M7.41743 6.23271C7.15099 6.23271 6.88634 6.19799 6.63066 6.12824C6.47442 6.0856 6.39112 5.95054 6.44473 5.82626C6.49833 5.70198 6.66852 5.63572 6.82436 5.67836C7.23868 5.79107 7.66714 5.78441 8.09759 5.65791C8.25204 5.61273 8.42442 5.67535 8.48161 5.79868C8.53881 5.92185 8.45949 6.05865 8.30465 6.10415C8.0125 6.18975 7.71377 6.23271 7.41743 6.23271Z" fill="black"/>
</svg>
